# xmcd
#
# Track frame offsets:
#	150
#	30340
#	48505
#	65152
#	85162
#	102075
#	124982
#	152877
#	162022
#	169500
#	200262
#	224945
#	247309
#
# Disc length: 3516 seconds
#
# Revision: 0
# Processed by: cddbd v1.4PL0 Copyright (c) Steve Scherf et al.
# Submitted via: dBpowerAMP V4.0
#
DISCID=b90dba0d
DTITLE=David Amram - Southern Stories
DYEAR=1999
DGENRE=Country
TTITLE0=Alfred the Hog
TTITLE1=Dreams of New Orleans
TTITLE2=Deep South Evening Light
TTITLE3=Once You've Been to Texas
TTITLE4=Kentucky Southern Gentleman
TTITLE5=Down Home Sunday in the South
TTITLE6=Texas Mongoose
TTITLE7=Louisiana Crawfish Etoufee
TTITLE8=Song for the Everglades
TTITLE9=Passagrille, Florida 1936
TTITLE10=From Kerrville to Cairo
TTITLE11=For Our Family Farmers
TTITLE12=Tennessee Waltz
EXTD=
EXTT0=
EXTT1=
EXTT2=
EXTT3=
EXTT4=
EXTT5=
EXTT6=
EXTT7=
EXTT8=
EXTT9=
EXTT10=
EXTT11=
EXTT12=
PLAYORDER=
